<svg xmlns="http://www.w3.org/2000/svg" width="24" height="24" viewBox="0 0 24 24" fill="none">
    <g clip-path="url(#clip0_4892_107563)">
        <path d="M16 16.63L12 12.63L8 16.63" stroke="var(--icon-color, #14130D)" stroke-width="2" stroke-linecap="round" stroke-linejoin="round"/>
        <path d="M12 12.63V21.63" stroke="var(--icon-color, #14130D)" stroke-width="2" stroke-linecap="round" stroke-linejoin="round"/>
        <path d="M20.39 19.02C21.3653 18.4883 22.1358 17.6469 22.5799 16.6286C23.0239 15.6104 23.1162 14.4732 22.8422 13.3967C22.5682 12.3201 21.9435 11.3655 21.0667 10.6834C20.1899 10.0014 19.1109 9.63072 18 9.62999H16.74C16.4373 8.45923 15.8732 7.37232 15.09 6.45098C14.3067 5.52964 13.3249 4.79784 12.2181 4.3106C11.1114 3.82335 9.90856 3.59335 8.70012 3.63787C7.49169 3.68239 6.30907 4.00029 5.24118 4.56765C4.17329 5.13502 3.24792 5.93709 2.53463 6.91357C1.82134 7.89005 1.3387 9.01553 1.12299 10.2054C0.907276 11.3952 0.964111 12.6185 1.28922 13.7832C1.61433 14.948 2.19925 16.0239 3.00001 16.93" stroke="var(--icon-color, #14130D)" stroke-width="2" stroke-linecap="round" stroke-linejoin="round"/>
        <path d="M16 16.63L12 12.63L8 16.63" stroke="var(--icon-color, #14130D)" stroke-width="2" stroke-linecap="round" stroke-linejoin="round"/>
    </g>
    <defs>
        <clipPath id="clip0_4892_107563">
            <rect width="24" height="24" fill="var(--icon-color, #14130D)" transform="translate(0 0.630005)"/>
        </clipPath>
    </defs>
</svg>
