<svg xmlns="http://www.w3.org/2000/svg" width="24" height="25" viewBox="0 0 24 25" fill="none"><path d="M16 4.63H18C18.5304 4.63 19.0391 4.84072 19.4142 5.21579C19.7893 5.59086 20 6.09957 20 6.63V20.63C20 21.1604 19.7893 21.6691 19.4142 22.0442C19.0391 22.4193 18.5304 22.63 18 22.63H6C5.46957 22.63 4.96086 22.4193 4.58579 22.0442C4.21071 21.6691 4 21.1604 4 20.63V6.63C4 6.09957 4.21071 5.59086 4.58579 5.21579C4.96086 4.84072 5.46957 4.63 6 4.63H8" stroke="var(--icon-color, #FFFEFC)" stroke-width="2" stroke-linecap="round" stroke-linejoin="round"/><path d="M15 2.63H9C8.44772 2.63 8 3.07772 8 3.63V5.63C8 6.18229 8.44772 6.63 9 6.63H15C15.5523 6.63 16 6.18229 16 5.63V3.63C16 3.07772 15.5523 2.63 15 2.63Z" stroke="var(--icon-color, #FFFEFC)" stroke-width="2" stroke-linecap="round" stroke-linejoin="round"/></svg>
