<svg width="20" height="20" viewBox="0 0 20 20" fill="none" xmlns="http://www.w3.org/2000/svg">
<path fill-rule="evenodd" clip-rule="evenodd" d="M13.8897 7.69358C14.128 7.94334 14.1187 8.33895 13.8689 8.57722L9.28298 12.9522C9.04135 13.1827 8.66119 13.1826 8.41976 12.9519L6.1307 10.7644C5.88115 10.5259 5.87217 10.1302 6.11065 9.8807C6.34913 9.63115 6.74475 9.62217 6.9943 9.86065L8.85193 11.6359L13.0061 7.67278C13.2558 7.43451 13.6515 7.44383 13.8897 7.69358Z" fill="#ADFF2C"/>
<path fill-rule="evenodd" clip-rule="evenodd" d="M10 3.125C6.20304 3.125 3.125 6.20304 3.125 10C3.125 13.797 6.20304 16.875 10 16.875C13.797 16.875 16.875 13.797 16.875 10C16.875 6.20304 13.797 3.125 10 3.125ZM1.875 10C1.875 5.51269 5.51269 1.875 10 1.875C14.4873 1.875 18.125 5.51269 18.125 10C18.125 14.4873 14.4873 18.125 10 18.125C5.51269 18.125 1.875 14.4873 1.875 10Z" fill="#ADFF2C"/>
</svg>
