<svg width="80" height="80" viewBox="0 0 80 80" fill="none" xmlns="http://www.w3.org/2000/svg">
<path fill-rule="evenodd" clip-rule="evenodd" d="M55.5589 30.7743C56.5119 31.7733 56.4747 33.3558 55.4757 34.3089L37.1319 51.8089C36.1654 52.7309 34.6448 52.7303 33.679 51.8074L24.5228 43.0574C23.5246 42.1035 23.4887 40.521 24.4426 39.5228C25.3965 38.5246 26.979 38.4887 27.9772 39.4426L35.4077 46.5434L52.0243 30.6911C53.0233 29.7381 54.6058 29.7753 55.5589 30.7743Z" fill="#ADFF2C"/>
<path fill-rule="evenodd" clip-rule="evenodd" d="M40 12.5C24.8122 12.5 12.5 24.8122 12.5 40C12.5 55.1878 24.8122 67.5 40 67.5C55.1878 67.5 67.5 55.1878 67.5 40C67.5 24.8122 55.1878 12.5 40 12.5ZM7.5 40C7.5 22.0507 22.0507 7.5 40 7.5C57.9493 7.5 72.5 22.0507 72.5 40C72.5 57.9493 57.9493 72.5 40 72.5C22.0507 72.5 7.5 57.9493 7.5 40Z" fill="#ADFF2C"/>
</svg>
