<svg width="20" height="20" viewBox="0 0 20 20" fill="none" xmlns="http://www.w3.org/2000/svg">
<g clip-path="url(#clip0_9678_5839)">
<path d="M8.24967 3.53303C8.82328 3.39876 9.41056 3.33164 9.99967 3.33303C15.833 3.33303 19.1663 9.99969 19.1663 9.99969C18.6605 10.946 18.0572 11.837 17.3663 12.658M11.7663 11.7664C11.5375 12.012 11.2615 12.209 10.9548 12.3456C10.6481 12.4823 10.3171 12.5557 9.98142 12.5617C9.64574 12.5676 9.31231 12.5058 9.00102 12.3801C8.68972 12.2544 8.40694 12.0672 8.16955 11.8298C7.93215 11.5924 7.745 11.3096 7.61926 10.9984C7.49353 10.6871 7.43178 10.3536 7.4377 10.018C7.44362 9.68228 7.5171 9.35123 7.65374 9.04457C7.79038 8.7379 7.98738 8.4619 8.23301 8.23303M14.9497 14.9497C13.5252 16.0355 11.7906 16.6371 9.99967 16.6664C4.16634 16.6664 0.833008 9.99969 0.833008 9.99969C1.86958 8.06794 3.30729 6.3802 5.04967 5.0497L14.9497 14.9497Z" stroke="#FFFEFC" stroke-width="2" stroke-linecap="round" stroke-linejoin="round"/>
<path d="M0.833008 0.833008L19.1663 19.1663" stroke="#FFFEFC" stroke-width="2" stroke-linecap="round" stroke-linejoin="round"/>
</g>
<defs>
<clipPath id="clip0_9678_5839">
<rect width="20" height="20" fill="white"/>
</clipPath>
</defs>
</svg>
