<svg xmlns="http://www.w3.org/2000/svg" width="24" height="24" viewBox="0 0 24 24" fill="none"><path d="M12 22.63C17.5228 22.63 22 18.1529 22 12.63C22 7.10716 17.5228 2.63 12 2.63C6.47715 2.63 2 7.10716 2 12.63C2 18.1529 6.47715 22.63 12 22.63Z" stroke="var(--icon-color, #FFFEFC)" stroke-width="2" stroke-linecap="round" stroke-linejoin="round"/><path d="M12 16.63C14.2091 16.63 16 14.8391 16 12.63C16 10.4209 14.2091 8.63 12 8.63C9.79086 8.63 8 10.4209 8 12.63C8 14.8391 9.79086 16.63 12 16.63Z" stroke="var(--icon-color, #FFFEFC)" stroke-width="2" stroke-linecap="round" stroke-linejoin="round"/><path d="M14.83 15.46L19.07 19.7" stroke="var(--icon-color, #FFFEFC)" stroke-width="2" stroke-linecap="round" stroke-linejoin="round"/><path d="M4.92999 19.7L9.16999 15.46" stroke="var(--icon-color, #FFFEFC)" stroke-width="2" stroke-linecap="round" stroke-linejoin="round"/><path d="M14.83 9.8L19.07 5.56" stroke="var(--icon-color, #FFFEFC)" stroke-width="2" stroke-linecap="round" stroke-linejoin="round"/><path d="M14.83 9.80002L18.36 6.27002" stroke="var(--icon-color, #FFFEFC)" stroke-width="2" stroke-linecap="round" stroke-linejoin="round"/><path d="M4.92999 5.56L9.16999 9.8" stroke="var(--icon-color, #FFFEFC)" stroke-width="2" stroke-linecap="round" stroke-linejoin="round"/></svg>
