<svg xmlns="http://www.w3.org/2000/svg" width="24" height="24" viewBox="0 0 24 24" fill="none"><g clip-path="url(#clip0_4892_106641)"><path d="M12 15.63C13.6569 15.63 15 14.2869 15 12.63C15 10.9732 13.6569 9.63 12 9.63C10.3431 9.63 9 10.9732 9 12.63C9 14.2869 10.3431 15.63 12 15.63Z" stroke="var(--icon-color, #FFFEFC)" stroke-width="2" stroke-linecap="round" stroke-linejoin="round"/><path d="M19.4 15.63C19.2669 15.9316 19.2272 16.2662 19.286 16.5906C19.3448 16.915 19.4995 17.2143 19.73 17.45L19.79 17.51C19.976 17.6958 20.1235 17.9163 20.2241 18.1591C20.3248 18.4019 20.3766 18.6622 20.3766 18.925C20.3766 19.1878 20.3248 19.4481 20.2241 19.6909C20.1235 19.9337 19.976 20.1543 19.79 20.34C19.6043 20.526 19.3837 20.6735 19.1409 20.7741C18.8981 20.8748 18.6378 20.9266 18.375 20.9266C18.1122 20.9266 17.8519 20.8748 17.6091 20.7741C17.3663 20.6735 17.1457 20.526 16.96 20.34L16.9 20.28C16.6643 20.0495 16.365 19.8948 16.0406 19.836C15.7162 19.7772 15.3816 19.8169 15.08 19.95C14.7842 20.0768 14.532 20.2872 14.3543 20.5555C14.1766 20.8238 14.0813 21.1382 14.08 21.46V21.63C14.08 22.1604 13.8693 22.6691 13.4942 23.0442C13.1191 23.4193 12.6104 23.63 12.08 23.63C11.5496 23.63 11.0409 23.4193 10.6658 23.0442C10.2907 22.6691 10.08 22.1604 10.08 21.63V21.54C10.0723 21.209 9.96512 20.888 9.77251 20.6187C9.5799 20.3494 9.31074 20.1443 9 20.03C8.69838 19.8969 8.36381 19.8572 8.03941 19.916C7.71502 19.9748 7.41568 20.1295 7.18 20.36L7.12 20.42C6.93425 20.606 6.71368 20.7535 6.47088 20.8541C6.22808 20.9548 5.96783 21.0066 5.705 21.0066C5.44217 21.0066 5.18192 20.9548 4.93912 20.8541C4.69632 20.7535 4.47575 20.606 4.29 20.42C4.10405 20.2343 3.95653 20.0137 3.85588 19.7709C3.75523 19.5281 3.70343 19.2678 3.70343 19.005C3.70343 18.7422 3.75523 18.4819 3.85588 18.2391C3.95653 17.9963 4.10405 17.7758 4.29 17.59L4.35 17.53C4.58054 17.2943 4.73519 16.995 4.794 16.6706C4.85282 16.3462 4.81312 16.0116 4.68 15.71C4.55324 15.4142 4.34276 15.162 4.07447 14.9843C3.80618 14.8066 3.49179 14.7113 3.17 14.71H3C2.46957 14.71 1.96086 14.4993 1.58579 14.1242C1.21071 13.7491 1 13.2404 1 12.71C1 12.1796 1.21071 11.6709 1.58579 11.2958C1.96086 10.9207 2.46957 10.71 3 10.71H3.09C3.42099 10.7023 3.742 10.5951 4.0113 10.4025C4.28059 10.2099 4.48572 9.94074 4.6 9.63C4.73312 9.32839 4.77282 8.99381 4.714 8.66942C4.65519 8.34502 4.50054 8.04568 4.27 7.81L4.21 7.75C4.02405 7.56426 3.87653 7.34368 3.77588 7.10089C3.67523 6.85809 3.62343 6.59784 3.62343 6.335C3.62343 6.07217 3.67523 5.81192 3.77588 5.56912C3.87653 5.32633 4.02405 5.10575 4.21 4.92C4.39575 4.73405 4.61632 4.58653 4.85912 4.48589C5.10192 4.38524 5.36217 4.33343 5.625 4.33343C5.88783 4.33343 6.14808 4.38524 6.39088 4.48589C6.63368 4.58653 6.85425 4.73405 7.04 4.92L7.1 4.98C7.33568 5.21054 7.63502 5.36519 7.95941 5.42401C8.28381 5.48283 8.61838 5.44312 8.92 5.31H9C9.29577 5.18324 9.54802 4.97276 9.72569 4.70447C9.90337 4.43618 9.99872 4.12179 10 3.8V3.63C10 3.09957 10.2107 2.59086 10.5858 2.21579C10.9609 1.84072 11.4696 1.63 12 1.63C12.5304 1.63 13.0391 1.84072 13.4142 2.21579C13.7893 2.59086 14 3.09957 14 3.63V3.72C14.0013 4.04179 14.0966 4.35618 14.2743 4.62447C14.452 4.89276 14.7042 5.10324 15 5.23C15.3016 5.36312 15.6362 5.40283 15.9606 5.34401C16.285 5.28519 16.5843 5.13054 16.82 4.9L16.88 4.84C17.0657 4.65405 17.2863 4.50653 17.5291 4.40589C17.7719 4.30524 18.0322 4.25343 18.295 4.25343C18.5578 4.25343 18.8181 4.30524 19.0609 4.40589C19.3037 4.50653 19.5243 4.65405 19.71 4.84C19.896 5.02575 20.0435 5.24633 20.1441 5.48912C20.2448 5.73192 20.2966 5.99217 20.2966 6.255C20.2966 6.51784 20.2448 6.77809 20.1441 7.02089C20.0435 7.26368 19.896 7.48426 19.71 7.67L19.65 7.73C19.4195 7.96568 19.2648 8.26502 19.206 8.58942C19.1472 8.91381 19.1869 9.24839 19.32 9.55V9.63C19.4468 9.92577 19.6572 10.178 19.9255 10.3557C20.1938 10.5334 20.5082 10.6287 20.83 10.63H21C21.5304 10.63 22.0391 10.8407 22.4142 11.2158C22.7893 11.5909 23 12.0996 23 12.63C23 13.1604 22.7893 13.6691 22.4142 14.0442C22.0391 14.4193 21.5304 14.63 21 14.63H20.91C20.5882 14.6313 20.2738 14.7266 20.0055 14.9043C19.7372 15.082 19.5268 15.3342 19.4 15.63V15.63Z" stroke="var(--icon-color, #FFFEFC)" stroke-width="2" stroke-linecap="round" stroke-linejoin="round"/></g><defs><clipPath id="clip0_4892_106641"><rect width="24" height="24" fill="white" transform="translate(0 0.630005)"/></clipPath></defs></svg>
