<svg fill="none" height="9" viewBox="0 0 9 9" width="9" xmlns="http://www.w3.org/2000/svg"><path d="m3.01496 4.50026-2.784211-2.78421c-.3076652-.30767-.3076652-.806442 0-1.113582l.371195-.371194c.307665-.3076654.806436-.3076654 1.113576 0l2.78422 2.784216 2.78421-2.784741c.30767-.3076654.80644-.3076654 1.11358 0l.37172.371193c.30767.307666.30767.806438 0 1.113578l-2.78474 2.78474 2.78422 2.78422c.30766.30766.30766.80644 0 1.11358l-.3712.37119c-.30766.30767-.80644.30767-1.11358 0l-2.78421-2.78421-2.78422 2.78421c-.30766.30767-.806436.30767-1.113576 0l-.371195-.37119c-.3076652-.30767-.3076652-.80644 0-1.11358z" fill="#4462a0"/></svg>