<svg width="14" height="14" viewBox="0 0 14 14" fill="none" xmlns="http://www.w3.org/2000/svg">
<g clip-path="url(#clip0)">
<path d="M4.66667 0.933334C4.1512 0.933334 3.73333 1.35121 3.73333 1.86667H0.933333C0.417871 1.86667 0 2.28454 0 2.8C0 3.31546 0.417871 3.73334 0.933333 3.73334H3.73333C3.73333 4.2488 4.1512 4.66667 4.66667 4.66667C5.18213 4.66667 5.6 4.2488 5.6 3.73334V1.86667C5.6 1.35121 5.18213 0.933334 4.66667 0.933334Z" fill="white"/>
<path d="M13.0667 6.06666H11.2C11.2 5.5512 10.7821 5.13333 10.2667 5.13333C9.75121 5.13333 9.33334 5.5512 9.33334 6.06666V7.93333C9.33334 8.44879 9.75121 8.86666 10.2667 8.86666C10.7821 8.86666 11.2 8.44879 11.2 7.93333H13.0667C13.5821 7.93333 14 7.51546 14 7C14 6.48454 13.5821 6.06666 13.0667 6.06666Z" fill="white"/>
<path d="M13.0667 1.86667H7C6.48454 1.86667 6.06667 2.28454 6.06667 2.8C6.06667 3.31546 6.48454 3.73334 7 3.73334H13.0667C13.5821 3.73334 14 3.31546 14 2.8C14 2.28454 13.5821 1.86667 13.0667 1.86667Z" fill="white"/>
<path d="M7.93333 6.06667H0.933333C0.417871 6.06667 0 6.48454 0 7C0 7.51546 0.417871 7.93333 0.933333 7.93333H7.93333C8.4488 7.93333 8.86667 7.51546 8.86667 7C8.86667 6.48454 8.4488 6.06667 7.93333 6.06667Z" fill="white"/>
<path d="M13.0667 10.2667H9.33333C8.81787 10.2667 8.4 10.6845 8.4 11.2C8.4 11.7155 8.81787 12.1333 9.33333 12.1333H13.0667C13.5821 12.1333 14 11.7155 14 11.2C14 10.6845 13.5821 10.2667 13.0667 10.2667Z" fill="white"/>
<path d="M7 9.33334C6.48454 9.33334 6.06667 9.75121 6.06667 10.2667H0.933333C0.417871 10.2667 0 10.6845 0 11.2C0 11.7155 0.417871 12.1333 0.933333 12.1333H6.06667C6.06667 12.6488 6.48454 13.0667 7 13.0667C7.51546 13.0667 7.93333 12.6488 7.93333 12.1333V10.2667C7.93333 9.75121 7.51546 9.33334 7 9.33334Z" fill="white"/>
</g>
<defs>
<clipPath id="clip0">
<rect width="14" height="14" fill="white"/>
</clipPath>
</defs>
</svg>
