<svg width="14" height="10" viewBox="0 0 14 10" fill="none" xmlns="http://www.w3.org/2000/svg">
<path d="M12.2683 7.98116H4.2562C3.70299 7.98116 3.25445 8.42991 3.25445 8.98333C3.25445 9.53633 3.70299 9.98508 4.2562 9.98508H12.2683C12.8213 9.98508 13.2698 9.53633 13.2698 8.98333C13.2698 8.43012 12.8213 7.98116 12.2683 7.98116Z" fill="white"/>
<path d="M12.2683 3.99356H4.2562C3.70299 3.99356 3.25445 4.4421 3.25445 4.99552C3.25445 5.54873 3.70299 5.99727 4.2562 5.99727H12.2683C12.8213 5.99727 13.2698 5.54873 13.2698 4.99552C13.2698 4.44231 12.8213 3.99356 12.2683 3.99356Z" fill="white"/>
<path d="M4.2562 2.00968H12.2683C12.8213 2.00968 13.2698 1.56115 13.2698 1.00772C13.2698 0.454298 12.8213 0.00597382 12.2683 0.00597382H4.2562C3.70299 0.00597382 3.25445 0.454511 3.25445 1.00772C3.25445 1.56093 3.70299 2.00968 4.2562 2.00968Z" fill="white"/>
<path d="M1.01688 2.03377C1.57849 2.03377 2.03377 1.57849 2.03377 1.01688C2.03377 0.455275 1.57849 0 1.01688 0C0.455275 0 0 0.455275 0 1.01688C0 1.57849 0.455275 2.03377 1.01688 2.03377Z" fill="white"/>
<path d="M1.01688 6.0122C1.57837 6.0122 2.03355 5.55702 2.03355 4.99553C2.03355 4.43404 1.57837 3.97886 1.01688 3.97886C0.455385 3.97886 0.000205994 4.43404 0.000205994 4.99553C0.000205994 5.55702 0.455385 6.0122 1.01688 6.0122Z" fill="white"/>
<path d="M1.01688 10C1.57849 10 2.03377 9.54473 2.03377 8.98312C2.03377 8.42151 1.57849 7.96623 1.01688 7.96623C0.455275 7.96623 0 8.42151 0 8.98312C0 9.54473 0.455275 10 1.01688 10Z" fill="white"/>
</svg>
